<svg width="1200" height="630" viewBox="0 0 1200 630" fill="none" xmlns="http://www.w3.org/2000/svg">
  <rect width="1200" height="630" fill="#050816"/>
  <rect width="1200" height="630" fill="url(#bg)"/>
  <g opacity="0.22">
    <path d="M0 88H1200" stroke="#78E6FF" stroke-width="1"/>
    <path d="M0 178H1200" stroke="#78E6FF" stroke-width="1"/>
    <path d="M0 268H1200" stroke="#78E6FF" stroke-width="1"/>
    <path d="M0 358H1200" stroke="#78E6FF" stroke-width="1"/>
    <path d="M0 448H1200" stroke="#78E6FF" stroke-width="1"/>
    <path d="M0 538H1200" stroke="#78E6FF" stroke-width="1"/>
    <path d="M90 0V630" stroke="#78E6FF" stroke-width="1"/>
    <path d="M270 0V630" stroke="#78E6FF" stroke-width="1"/>
    <path d="M450 0V630" stroke="#78E6FF" stroke-width="1"/>
    <path d="M630 0V630" stroke="#78E6FF" stroke-width="1"/>
    <path d="M810 0V630" stroke="#78E6FF" stroke-width="1"/>
    <path d="M990 0V630" stroke="#78E6FF" stroke-width="1"/>
    <path d="M1170 0V630" stroke="#78E6FF" stroke-width="1"/>
  </g>
  <circle cx="184" cy="118" r="180" fill="#78E6FF" fill-opacity="0.13"/>
  <circle cx="1008" cy="106" r="150" fill="#C7D2FE" fill-opacity="0.12"/>
  <circle cx="626" cy="564" r="180" fill="#6EE7B7" fill-opacity="0.1"/>

  <rect x="94" y="96" width="1012" height="438" rx="28" fill="#0B1223" fill-opacity="0.92" stroke="#1E293B"/>
  <rect x="94" y="96" width="1012" height="74" rx="28" fill="#0F172A"/>
  <circle cx="142" cy="133" r="10" fill="#EF4444"/>
  <circle cx="174" cy="133" r="10" fill="#F59E0B"/>
  <circle cx="206" cy="133" r="10" fill="#22C55E"/>

  <text x="128" y="230" fill="#6EE7B7" font-family="'JetBrains Mono', monospace" font-size="30">$</text>
  <text x="155" y="230" fill="#E2E8F0" font-family="'JetBrains Mono', monospace" font-size="30">whoami</text>
  <text x="155" y="276" fill="#78E6FF" font-family="'JetBrains Mono', monospace" font-size="28">Lucas C. Bedatty</text>

  <text x="128" y="340" fill="#6EE7B7" font-family="'JetBrains Mono', monospace" font-size="26">$</text>
  <text x="155" y="340" fill="#E2E8F0" font-family="'JetBrains Mono', monospace" font-size="26">Senior DevOps Engineer</text>
  <text x="155" y="382" fill="#C7D2FE" font-family="'JetBrains Mono', monospace" font-size="24">AWS / SRE / Platform Engineering</text>

  <text x="128" y="448" fill="#6EE7B7" font-family="'JetBrains Mono', monospace" font-size="24">$</text>
  <text x="155" y="448" fill="#E2E8F0" font-family="'JetBrains Mono', monospace" font-size="24">Building secure, scalable cloud platforms.</text>

  <defs>
    <linearGradient id="bg" x1="600" y1="0" x2="600" y2="630" gradientUnits="userSpaceOnUse">
      <stop stop-color="#060816"/>
      <stop offset="1" stop-color="#040712"/>
    </linearGradient>
  </defs>
</svg>
